<svg width="152" height="71" viewBox="0 0 152 71" fill="none" xmlns="http://www.w3.org/2000/svg">
<path d="M65.8609 0C66.2525 0.213445 66.605 0.455327 66.8452 0.776889C74.679 11.2678 82.5027 21.766 90.3238 32.2659C90.5424 32.5593 90.7173 32.8837 91 33.3324C84.8892 38.865 78.7969 44.381 72.5907 50C70.4567 47.8082 68.3516 45.6461 66.2193 43.4561C63.8371 45.7559 61.6995 47.8196 59.468 49.9739C53.3244 44.4152 47.1937 38.8681 41 33.2641C49.2903 22.1526 57.5298 11.1091 65.8609 0ZM57.9311 19.0235C54.5695 23.5362 51.2079 28.0489 47.8064 32.6152C51.7245 36.157 55.5192 39.5873 59.6269 43.3004C63.5422 39.1591 67.3577 35.1235 71.3038 30.9496C69.775 28.9102 67.9475 26.4724 66.0315 23.9166C64.0584 26.5602 62.2595 28.9703 60.4514 31.3929C61.9188 32.7534 63.2387 33.9772 64.6661 35.3006C63.3872 36.4673 62.2162 37.5357 60.9589 38.6826C58.4845 36.4409 56.0824 34.2647 53.6435 32.0551C57.7814 26.5105 61.8433 21.0678 66.0379 15.4473C70.2378 21.0758 74.3039 26.5247 78.43 32.0542C75.5146 34.704 72.6372 37.3194 69.5901 40.089C70.6974 41.0676 71.7343 41.984 72.8421 42.9631C76.6054 39.5578 80.4057 36.1189 84.2816 32.6117C78.2011 24.4621 72.1675 16.3755 66.0408 8.16406C63.2819 11.8526 60.6708 15.3438 57.9311 19.0235Z" fill="#10CDD3"/>
<path d="M57.9954 18.9292C60.6708 15.3438 63.282 11.8526 66.0408 8.16406C72.1675 16.3755 78.2011 24.4621 84.2816 32.6117C80.4058 36.1189 76.6054 39.5577 72.8421 42.9631C71.7343 41.984 70.6975 41.0676 69.5902 40.0889C72.6373 37.3194 75.5147 34.704 78.43 32.0542C74.3039 26.5247 70.2379 21.0758 66.0379 15.4473C61.8433 21.0678 57.7814 26.5105 53.6435 32.0551C56.0824 34.2647 58.4845 36.4409 60.959 38.6826C62.2162 37.5357 63.3872 36.4673 64.6662 35.3006C63.2387 33.9772 61.9188 32.7534 60.4514 31.3929C62.2596 28.9703 64.0585 26.5602 66.0316 23.9166C67.9476 26.4724 69.775 28.9102 71.3039 30.9496C67.3577 35.1235 63.5423 39.1591 59.6269 43.3004C55.5192 39.5873 51.7246 36.157 47.8064 32.6152C51.2079 28.0489 54.5696 23.5362 57.9954 18.9292Z" fill="#011123"/>
<path d="M9.38 55.172V65H6.986V60.954H3.262V65H0.868V55.172H3.262V59.022H6.986V55.172H9.38ZM12.3122 56.376C11.8922 56.376 11.5469 56.2547 11.2762 56.012C11.0149 55.76 10.8842 55.452 10.8842 55.088C10.8842 54.7147 11.0149 54.4067 11.2762 54.164C11.5469 53.912 11.8922 53.786 12.3122 53.786C12.7229 53.786 13.0589 53.912 13.3202 54.164C13.5909 54.4067 13.7262 54.7147 13.7262 55.088C13.7262 55.452 13.5909 55.76 13.3202 56.012C13.0589 56.2547 12.7229 56.376 12.3122 56.376ZM13.5022 57.188V65H11.1082V57.188H13.5022ZM18.2051 57.076C18.7558 57.076 19.2365 57.188 19.6471 57.412C20.0671 57.636 20.3891 57.93 20.6131 58.294V57.188H23.0071V64.986C23.0071 65.7047 22.8625 66.3533 22.5731 66.932C22.2931 67.52 21.8591 67.9867 21.2711 68.332C20.6925 68.6773 19.9691 68.85 19.1011 68.85C17.9438 68.85 17.0058 68.5747 16.2871 68.024C15.5685 67.4827 15.1578 66.7453 15.0551 65.812H17.4211C17.4958 66.1107 17.6731 66.344 17.9531 66.512C18.2331 66.6893 18.5785 66.778 18.9891 66.778C19.4838 66.778 19.8758 66.6333 20.1651 66.344C20.4638 66.064 20.6131 65.6113 20.6131 64.986V63.88C20.3798 64.244 20.0578 64.5427 19.6471 64.776C19.2365 65 18.7558 65.112 18.2051 65.112C17.5611 65.112 16.9778 64.9487 16.4551 64.622C15.9325 64.286 15.5171 63.8147 15.2091 63.208C14.9105 62.592 14.7611 61.8827 14.7611 61.08C14.7611 60.2773 14.9105 59.5727 15.2091 58.966C15.5171 58.3593 15.9325 57.8927 16.4551 57.566C16.9778 57.2393 17.5611 57.076 18.2051 57.076ZM20.6131 61.094C20.6131 60.4967 20.4451 60.0253 20.1091 59.68C19.7825 59.3347 19.3811 59.162 18.9051 59.162C18.4291 59.162 18.0231 59.3347 17.6871 59.68C17.3605 60.016 17.1971 60.4827 17.1971 61.08C17.1971 61.6773 17.3605 62.1533 17.6871 62.508C18.0231 62.8533 18.4291 63.026 18.9051 63.026C19.3811 63.026 19.7825 62.8533 20.1091 62.508C20.4451 62.1627 20.6131 61.6913 20.6131 61.094ZM29.5411 57.104C30.4371 57.104 31.1558 57.4027 31.6971 58C32.2384 58.588 32.5091 59.4 32.5091 60.436V65H30.1291V60.758C30.1291 60.2353 29.9938 59.8293 29.7231 59.54C29.4524 59.2507 29.0884 59.106 28.6311 59.106C28.1738 59.106 27.8098 59.2507 27.5391 59.54C27.2684 59.8293 27.1331 60.2353 27.1331 60.758V65H24.7391V54.64H27.1331V58.238C27.3758 57.8927 27.7071 57.6173 28.1271 57.412C28.5471 57.2067 29.0184 57.104 29.5411 57.104ZM41.4935 62.97V65H40.2755C39.4075 65 38.7308 64.79 38.2455 64.37C37.7602 63.9407 37.5175 63.2453 37.5175 62.284V59.176H36.5655V57.188H37.5175V55.284H39.9115V57.188H41.4795V59.176H39.9115V62.312C39.9115 62.5453 39.9675 62.7133 40.0795 62.816C40.1915 62.9187 40.3782 62.97 40.6395 62.97H41.4935ZM50.191 60.968C50.191 61.192 50.177 61.4253 50.149 61.668H44.731C44.7683 62.1533 44.9223 62.5267 45.193 62.788C45.473 63.04 45.8137 63.166 46.215 63.166C46.8123 63.166 47.2277 62.914 47.461 62.41H50.009C49.8783 62.9233 49.6403 63.3853 49.295 63.796C48.959 64.2067 48.5343 64.5287 48.021 64.762C47.5077 64.9953 46.9337 65.112 46.299 65.112C45.5337 65.112 44.8523 64.9487 44.255 64.622C43.6577 64.2953 43.191 63.8287 42.855 63.222C42.519 62.6153 42.351 61.906 42.351 61.094C42.351 60.282 42.5143 59.5727 42.841 58.966C43.177 58.3593 43.6437 57.8927 44.241 57.566C44.8383 57.2393 45.5243 57.076 46.299 57.076C47.055 57.076 47.727 57.2347 48.315 57.552C48.903 57.8693 49.3603 58.322 49.687 58.91C50.023 59.498 50.191 60.184 50.191 60.968ZM47.741 60.338C47.741 59.9273 47.601 59.6007 47.321 59.358C47.041 59.1153 46.691 58.994 46.271 58.994C45.8697 58.994 45.529 59.1107 45.249 59.344C44.9783 59.5773 44.8103 59.9087 44.745 60.338H47.741ZM50.9779 61.094C50.9779 60.282 51.1413 59.5727 51.4679 58.966C51.8039 58.3593 52.2659 57.8927 52.8539 57.566C53.4513 57.2393 54.1326 57.076 54.8979 57.076C55.8779 57.076 56.6946 57.3327 57.3479 57.846C58.0106 58.3593 58.4446 59.0827 58.6499 60.016H56.1019C55.8873 59.4187 55.4719 59.12 54.8559 59.12C54.4173 59.12 54.0673 59.2927 53.8059 59.638C53.5446 59.974 53.4139 60.4593 53.4139 61.094C53.4139 61.7287 53.5446 62.2187 53.8059 62.564C54.0673 62.9 54.4173 63.068 54.8559 63.068C55.4719 63.068 55.8873 62.7693 56.1019 62.172H58.6499C58.4446 63.0867 58.0106 63.8053 57.3479 64.328C56.6853 64.8507 55.8686 65.112 54.8979 65.112C54.1326 65.112 53.4513 64.9487 52.8539 64.622C52.2659 64.2953 51.8039 63.8287 51.4679 63.222C51.1413 62.6153 50.9779 61.906 50.9779 61.094ZM64.7325 57.104C65.6285 57.104 66.3472 57.4027 66.8885 58C67.4298 58.588 67.7005 59.4 67.7005 60.436V65H65.3205V60.758C65.3205 60.2353 65.1852 59.8293 64.9145 59.54C64.6438 59.2507 64.2798 59.106 63.8225 59.106C63.3652 59.106 63.0012 59.2507 62.7305 59.54C62.4598 59.8293 62.3245 60.2353 62.3245 60.758V65H59.9305V54.64H62.3245V58.238C62.5672 57.8927 62.8985 57.6173 63.3185 57.412C63.7385 57.2067 64.2098 57.104 64.7325 57.104ZM79.6949 60.968C79.6949 61.192 79.6809 61.4253 79.6529 61.668H74.2349C74.2722 62.1533 74.4262 62.5267 74.6969 62.788C74.9769 63.04 75.3176 63.166 75.7189 63.166C76.3162 63.166 76.7316 62.914 76.9649 62.41H79.5129C79.3822 62.9233 79.1442 63.3853 78.7989 63.796C78.4629 64.2067 78.0382 64.5287 77.5249 64.762C77.0116 64.9953 76.4376 65.112 75.8029 65.112C75.0376 65.112 74.3562 64.9487 73.7589 64.622C73.1616 64.2953 72.6949 63.8287 72.3589 63.222C72.0229 62.6153 71.8549 61.906 71.8549 61.094C71.8549 60.282 72.0182 59.5727 72.3449 58.966C72.6809 58.3593 73.1476 57.8927 73.7449 57.566C74.3422 57.2393 75.0282 57.076 75.8029 57.076C76.5589 57.076 77.2309 57.2347 77.8189 57.552C78.4069 57.8693 78.8642 58.322 79.1909 58.91C79.5269 59.498 79.6949 60.184 79.6949 60.968ZM77.2449 60.338C77.2449 59.9273 77.1049 59.6007 76.8249 59.358C76.5449 59.1153 76.1949 58.994 75.7749 58.994C75.3736 58.994 75.0329 59.1107 74.7529 59.344C74.4822 59.5773 74.3142 59.9087 74.2489 60.338H77.2449ZM83.3518 54.64V65H80.9578V54.64H83.3518ZM92.4507 60.968C92.4507 61.192 92.4368 61.4253 92.4088 61.668H86.9908C87.0281 62.1533 87.1821 62.5267 87.4528 62.788C87.7328 63.04 88.0734 63.166 88.4748 63.166C89.0721 63.166 89.4874 62.914 89.7208 62.41H92.2688C92.1381 62.9233 91.9001 63.3853 91.5548 63.796C91.2188 64.2067 90.7941 64.5287 90.2808 64.762C89.7674 64.9953 89.1934 65.112 88.5588 65.112C87.7934 65.112 87.1121 64.9487 86.5148 64.622C85.9174 64.2953 85.4508 63.8287 85.1148 63.222C84.7788 62.6153 84.6108 61.906 84.6108 61.094C84.6108 60.282 84.7741 59.5727 85.1008 58.966C85.4368 58.3593 85.9034 57.8927 86.5008 57.566C87.0981 57.2393 87.7841 57.076 88.5588 57.076C89.3148 57.076 89.9868 57.2347 90.5748 57.552C91.1628 57.8693 91.6201 58.322 91.9468 58.91C92.2828 59.498 92.4507 60.184 92.4507 60.968ZM90.0008 60.338C90.0008 59.9273 89.8608 59.6007 89.5808 59.358C89.3008 59.1153 88.9508 58.994 88.5308 58.994C88.1294 58.994 87.7888 59.1107 87.5088 59.344C87.2381 59.5773 87.0701 59.9087 87.0048 60.338H90.0008ZM93.2377 61.094C93.2377 60.282 93.401 59.5727 93.7277 58.966C94.0637 58.3593 94.5257 57.8927 95.1137 57.566C95.711 57.2393 96.3924 57.076 97.1577 57.076C98.1377 57.076 98.9544 57.3327 99.6077 57.846C100.27 58.3593 100.704 59.0827 100.91 60.016H98.3617C98.147 59.4187 97.7317 59.12 97.1157 59.12C96.677 59.12 96.327 59.2927 96.0657 59.638C95.8044 59.974 95.6737 60.4593 95.6737 61.094C95.6737 61.7287 95.8044 62.2187 96.0657 62.564C96.327 62.9 96.677 63.068 97.1157 63.068C97.7317 63.068 98.147 62.7693 98.3617 62.172H100.91C100.704 63.0867 100.27 63.8053 99.6077 64.328C98.945 64.8507 98.1284 65.112 97.1577 65.112C96.3924 65.112 95.711 64.9487 95.1137 64.622C94.5257 64.2953 94.0637 63.8287 93.7277 63.222C93.401 62.6153 93.2377 61.906 93.2377 61.094ZM106.544 62.97V65H105.326C104.458 65 103.782 64.79 103.296 64.37C102.811 63.9407 102.568 63.2453 102.568 62.284V59.176H101.616V57.188H102.568V55.284H104.962V57.188H106.53V59.176H104.962V62.312C104.962 62.5453 105.018 62.7133 105.13 62.816C105.242 62.9187 105.429 62.97 105.69 62.97H106.544ZM110.272 58.49C110.552 58.0607 110.902 57.7247 111.322 57.482C111.742 57.23 112.208 57.104 112.722 57.104V59.638H112.064C111.466 59.638 111.018 59.7687 110.72 60.03C110.421 60.282 110.272 60.73 110.272 61.374V65H107.878V57.188H110.272V58.49ZM117.422 65.112C116.657 65.112 115.966 64.9487 115.35 64.622C114.743 64.2953 114.263 63.8287 113.908 63.222C113.563 62.6153 113.39 61.906 113.39 61.094C113.39 60.2913 113.567 59.5867 113.922 58.98C114.277 58.364 114.762 57.8927 115.378 57.566C115.994 57.2393 116.685 57.076 117.45 57.076C118.215 57.076 118.906 57.2393 119.522 57.566C120.138 57.8927 120.623 58.364 120.978 58.98C121.333 59.5867 121.51 60.2913 121.51 61.094C121.51 61.8967 121.328 62.606 120.964 63.222C120.609 63.8287 120.119 64.2953 119.494 64.622C118.878 64.9487 118.187 65.112 117.422 65.112ZM117.422 63.04C117.879 63.04 118.267 62.872 118.584 62.536C118.911 62.2 119.074 61.7193 119.074 61.094C119.074 60.4687 118.915 59.988 118.598 59.652C118.29 59.316 117.907 59.148 117.45 59.148C116.983 59.148 116.596 59.316 116.288 59.652C115.98 59.9787 115.826 60.4593 115.826 61.094C115.826 61.7193 115.975 62.2 116.274 62.536C116.582 62.872 116.965 63.04 117.422 63.04ZM127.54 57.104C128.455 57.104 129.183 57.4027 129.724 58C130.275 58.588 130.55 59.4 130.55 60.436V65H128.17V60.758C128.17 60.2353 128.035 59.8293 127.764 59.54C127.493 59.2507 127.129 59.106 126.672 59.106C126.215 59.106 125.851 59.2507 125.58 59.54C125.309 59.8293 125.174 60.2353 125.174 60.758V65H122.78V57.188H125.174V58.224C125.417 57.8787 125.743 57.608 126.154 57.412C126.565 57.2067 127.027 57.104 127.54 57.104ZM133.418 56.376C132.998 56.376 132.652 56.2547 132.382 56.012C132.12 55.76 131.99 55.452 131.99 55.088C131.99 54.7147 132.12 54.4067 132.382 54.164C132.652 53.912 132.998 53.786 133.418 53.786C133.828 53.786 134.164 53.912 134.426 54.164C134.696 54.4067 134.832 54.7147 134.832 55.088C134.832 55.452 134.696 55.76 134.426 56.012C134.164 56.2547 133.828 56.376 133.418 56.376ZM134.608 57.188V65H132.214V57.188H134.608ZM135.867 61.094C135.867 60.282 136.03 59.5727 136.357 58.966C136.693 58.3593 137.155 57.8927 137.743 57.566C138.34 57.2393 139.021 57.076 139.787 57.076C140.767 57.076 141.583 57.3327 142.237 57.846C142.899 58.3593 143.333 59.0827 143.539 60.016H140.991C140.776 59.4187 140.361 59.12 139.745 59.12C139.306 59.12 138.956 59.2927 138.695 59.638C138.433 59.974 138.303 60.4593 138.303 61.094C138.303 61.7287 138.433 62.2187 138.695 62.564C138.956 62.9 139.306 63.068 139.745 63.068C140.361 63.068 140.776 62.7693 140.991 62.172H143.539C143.333 63.0867 142.899 63.8053 142.237 64.328C141.574 64.8507 140.757 65.112 139.787 65.112C139.021 65.112 138.34 64.9487 137.743 64.622C137.155 64.2953 136.693 63.8287 136.357 63.222C136.03 62.6153 135.867 61.906 135.867 61.094ZM147.997 65.112C147.316 65.112 146.709 64.9953 146.177 64.762C145.645 64.5287 145.225 64.2113 144.917 63.81C144.609 63.3993 144.437 62.942 144.399 62.438H146.765C146.793 62.7087 146.919 62.928 147.143 63.096C147.367 63.264 147.643 63.348 147.969 63.348C148.268 63.348 148.497 63.292 148.655 63.18C148.823 63.0587 148.907 62.9047 148.907 62.718C148.907 62.494 148.791 62.3307 148.557 62.228C148.324 62.116 147.946 61.9947 147.423 61.864C146.863 61.7333 146.397 61.598 146.023 61.458C145.65 61.3087 145.328 61.08 145.057 60.772C144.787 60.4547 144.651 60.03 144.651 59.498C144.651 59.05 144.773 58.644 145.015 58.28C145.267 57.9067 145.631 57.6127 146.107 57.398C146.593 57.1833 147.167 57.076 147.829 57.076C148.809 57.076 149.579 57.3187 150.139 57.804C150.709 58.2893 151.035 58.9333 151.119 59.736H148.907C148.87 59.4653 148.749 59.2507 148.543 59.092C148.347 58.9333 148.086 58.854 147.759 58.854C147.479 58.854 147.265 58.91 147.115 59.022C146.966 59.1247 146.891 59.2693 146.891 59.456C146.891 59.68 147.008 59.848 147.241 59.96C147.484 60.072 147.857 60.184 148.361 60.296C148.94 60.4453 149.411 60.5947 149.775 60.744C150.139 60.884 150.457 61.1173 150.727 61.444C151.007 61.7613 151.152 62.1907 151.161 62.732C151.161 63.1893 151.031 63.6 150.769 63.964C150.517 64.3187 150.149 64.5987 149.663 64.804C149.187 65.0093 148.632 65.112 147.997 65.112Z" fill="black"/>
</svg>
