<svg width="547" height="184" viewBox="0 0 547 184" fill="none" xmlns="http://www.w3.org/2000/svg">
<rect width="40.8972" height="61.3333" fill="#10CDD3"/>
<rect x="122.692" width="40.8972" height="61.3333" fill="#10CDD3"/>
<rect x="265.832" y="30.6666" width="40.8972" height="30.6666" fill="#10CDD3"/>
<path d="M449.869 0L547 0L536.208 30.6666L449.869 30.6666V0Z" fill="#10CDD3"/>
<path d="M448.847 153.334H534.075L541.888 184H448.847V153.334Z" fill="#10CDD3"/>
<rect x="122.692" y="122.667" width="40.8972" height="61.3333" fill="#10CDD3"/>
<rect x="265.832" y="122.667" width="40.8972" height="61.3333" fill="#10CDD3"/>
<rect x="265.832" y="122.667" width="40.8972" height="61.3333" fill="#10CDD3"/>
<rect x="408.972" y="122.667" width="40.8972" height="61.3333" fill="#10CDD3"/>
<rect x="408.972" width="40.8972" height="61.3333" fill="#10CDD3"/>
<rect y="122.667" width="40.8972" height="61.3333" fill="#10CDD3"/>
<rect x="204.486" width="163.589" height="30.6666" fill="#10CDD3"/>
<path d="M3.03409 114.233L3.03409 79.3243H10.4148L10.4148 93.7277H25.3977V79.3243H32.7614V114.233H25.3977L25.3977 99.8129H10.4148V114.233H3.03409ZM38.7103 114.233V88.0515H45.9716V114.233H38.7103ZM42.358 84.6765C41.2784 84.6765 40.3523 84.3186 39.5796 83.6027C38.8182 82.8754 38.4375 82.0061 38.4375 80.9947C38.4375 79.9947 38.8182 79.1368 39.5796 78.4208C40.3523 77.6936 41.2784 77.3299 42.358 77.3299C43.4375 77.3299 44.358 77.6936 45.1193 78.4208C45.8921 79.1368 46.2784 79.9947 46.2784 80.9947C46.2784 82.0061 45.8921 82.8754 45.1193 83.6027C44.358 84.3186 43.4375 84.6765 42.358 84.6765ZM63.5838 124.597C61.2316 124.597 59.2145 124.273 57.5327 123.625C55.8622 122.989 54.5327 122.12 53.5441 121.017C52.5554 119.915 51.9134 118.677 51.6179 117.302L58.3338 116.398C58.5384 116.921 58.8623 117.41 59.3054 117.864C59.7486 118.319 60.3338 118.682 61.0611 118.955C61.7998 119.239 62.6975 119.381 63.7543 119.381C65.3338 119.381 66.635 118.995 67.6577 118.222C68.6918 117.461 69.2088 116.182 69.2088 114.387V109.597H68.902C68.5838 110.324 68.1066 111.012 67.4702 111.659C66.8338 112.307 66.0157 112.836 65.0157 113.245C64.0157 113.654 62.8225 113.858 61.4361 113.858C59.4702 113.858 57.6804 113.404 56.0668 112.495C54.4645 111.574 53.1861 110.171 52.2316 108.284C51.2884 106.387 50.8168 103.989 50.8168 101.091C50.8168 98.1254 51.2997 95.6481 52.2657 93.6595C53.2316 91.6709 54.5157 90.1822 56.1179 89.1936C57.7316 88.2049 59.4986 87.7106 61.4191 87.7106C62.885 87.7106 64.1123 87.9606 65.1009 88.4606C66.0895 88.9493 66.885 89.5629 67.4873 90.3015C68.1009 91.0288 68.5725 91.7447 68.902 92.4493H69.1748V88.0515H76.385V114.489C76.385 116.716 75.8395 118.58 74.7486 120.08C73.6577 121.58 72.1464 122.705 70.2145 123.455C68.2941 124.216 66.0838 124.597 63.5838 124.597ZM63.7373 108.404C64.9077 108.404 65.8963 108.114 66.7032 107.534C67.5213 106.944 68.1463 106.103 68.5782 105.012C69.0213 103.909 69.2429 102.591 69.2429 101.057C69.2429 99.5231 69.027 98.1936 68.5952 97.0686C68.1634 95.9322 67.5384 95.0515 66.7202 94.4265C65.902 93.8015 64.9077 93.489 63.7373 93.489C62.5441 93.489 61.5384 93.8129 60.7202 94.4606C59.902 95.097 59.2827 95.9834 58.8623 97.1197C58.4418 98.2561 58.2316 99.5686 58.2316 101.057C58.2316 102.569 58.4418 103.875 58.8623 104.978C59.2941 106.069 59.9134 106.915 60.7202 107.517C61.5384 108.108 62.5441 108.404 63.7373 108.404ZM89.4248 99.097V114.233H82.1634V79.3243H89.2202V92.6709H89.527C90.118 91.1254 91.0725 89.9152 92.3907 89.0402C93.7089 88.1538 95.3623 87.7106 97.3509 87.7106C99.1691 87.7106 100.754 88.1083 102.107 88.9038C103.47 89.6879 104.527 90.8186 105.277 92.2959C106.038 93.7618 106.413 95.5174 106.402 97.5629V114.233H99.1407V98.8584C99.152 97.2447 98.743 95.989 97.9134 95.0913C97.0952 94.1936 95.9475 93.7447 94.4702 93.7447C93.4816 93.7447 92.6066 93.9549 91.8452 94.3754C91.0952 94.7959 90.5043 95.4095 90.0725 96.2163C89.652 97.0118 89.4361 97.972 89.4248 99.097Z" fill="#054345"/>
<path d="M124.396 85.4095V79.3243H153.067V85.4095H142.379V114.233H135.084V85.4095H124.396ZM165.787 114.745C163.094 114.745 160.775 114.199 158.832 113.108C156.9 112.006 155.412 110.449 154.366 108.438C153.321 106.415 152.798 104.023 152.798 101.262C152.798 98.5686 153.321 96.2049 154.366 94.1709C155.412 92.1368 156.883 90.5515 158.781 89.4152C160.69 88.2788 162.929 87.7106 165.497 87.7106C167.224 87.7106 168.832 87.989 170.321 88.5458C171.821 89.0913 173.128 89.9152 174.241 91.0174C175.366 92.1197 176.241 93.5061 176.866 95.1765C177.491 96.8356 177.804 98.7788 177.804 101.006V103H155.696V98.5004H170.969C170.969 97.4549 170.741 96.5288 170.287 95.722C169.832 94.9152 169.202 94.2845 168.395 93.8299C167.599 93.364 166.673 93.1311 165.616 93.1311C164.514 93.1311 163.537 93.3868 162.684 93.8981C161.844 94.3981 161.184 95.0743 160.707 95.9265C160.23 96.7674 159.986 97.7049 159.974 98.739V103.017C159.974 104.313 160.213 105.432 160.69 106.375C161.179 107.319 161.866 108.046 162.753 108.557C163.639 109.069 164.69 109.324 165.906 109.324C166.713 109.324 167.452 109.211 168.122 108.983C168.792 108.756 169.366 108.415 169.844 107.961C170.321 107.506 170.684 106.949 170.934 106.29L177.65 106.733C177.309 108.347 176.611 109.756 175.554 110.961C174.508 112.154 173.156 113.086 171.497 113.756C169.849 114.415 167.946 114.745 165.787 114.745ZM194.372 114.745C191.69 114.745 189.383 114.177 187.452 113.04C185.531 111.892 184.054 110.302 183.02 108.267C181.997 106.233 181.486 103.892 181.486 101.245C181.486 98.5629 182.003 96.2106 183.037 94.1879C184.082 92.1538 185.565 90.5686 187.486 89.4322C189.406 88.2845 191.69 87.7106 194.338 87.7106C196.622 87.7106 198.622 88.1254 200.338 88.9549C202.054 89.7845 203.412 90.9493 204.412 92.4493C205.412 93.9493 205.963 95.7106 206.065 97.7334H199.213C199.02 96.4265 198.508 95.3754 197.679 94.5799C196.861 93.7731 195.787 93.3697 194.457 93.3697C193.332 93.3697 192.349 93.6765 191.508 94.2902C190.679 94.8924 190.031 95.7731 189.565 96.9322C189.099 98.0913 188.866 99.4947 188.866 101.142C188.866 102.813 189.094 104.233 189.548 105.404C190.014 106.574 190.667 107.466 191.508 108.08C192.349 108.694 193.332 109 194.457 109C195.287 109 196.031 108.83 196.69 108.489C197.361 108.148 197.912 107.654 198.344 107.006C198.787 106.347 199.077 105.557 199.213 104.637H206.065C205.952 106.637 205.406 108.398 204.429 109.921C203.463 111.432 202.128 112.614 200.423 113.466C198.719 114.319 196.702 114.745 194.372 114.745ZM217.976 99.097V114.233H210.714V79.3243H217.771V92.6709H218.078C218.669 91.1254 219.623 89.9152 220.942 89.0402C222.26 88.1538 223.913 87.7106 225.902 87.7106C227.72 87.7106 229.305 88.1083 230.658 88.9038C232.021 89.6879 233.078 90.8186 233.828 92.2959C234.589 93.7618 234.964 95.5174 234.953 97.5629V114.233H227.692V98.8584C227.703 97.2447 227.294 95.989 226.464 95.0913C225.646 94.1936 224.498 93.7447 223.021 93.7447C222.033 93.7447 221.158 93.9549 220.396 94.3754C219.646 94.7959 219.055 95.4095 218.623 96.2163C218.203 97.0118 217.987 97.972 217.976 99.097Z" fill="#054345"/>
<path d="M268.866 114.233V79.3243H292.389V85.4095H276.246V93.7277H291.178V99.8129H276.246V108.148H292.457V114.233H268.866ZM305.381 79.3243V114.233H298.12V79.3243H305.381ZM323.13 114.745C320.437 114.745 318.119 114.199 316.175 113.108C314.244 112.006 312.755 110.449 311.71 108.438C310.664 106.415 310.141 104.023 310.141 101.262C310.141 98.5686 310.664 96.2049 311.71 94.1709C312.755 92.1368 314.227 90.5515 316.124 89.4152C318.033 88.2788 320.272 87.7106 322.84 87.7106C324.568 87.7106 326.175 87.989 327.664 88.5458C329.164 89.0913 330.471 89.9152 331.585 91.0174C332.71 92.1197 333.585 93.5061 334.21 95.1765C334.835 96.8356 335.147 98.7788 335.147 101.006V103H313.039V98.5004H328.312C328.312 97.4549 328.085 96.5288 327.63 95.722C327.175 94.9152 326.545 94.2845 325.738 93.8299C324.943 93.364 324.016 93.1311 322.96 93.1311C321.857 93.1311 320.88 93.3868 320.028 93.8981C319.187 94.3981 318.528 95.0743 318.05 95.9265C317.573 96.7674 317.329 97.7049 317.318 98.739V103.017C317.318 104.313 317.556 105.432 318.033 106.375C318.522 107.319 319.21 108.046 320.096 108.557C320.982 109.069 322.033 109.324 323.249 109.324C324.056 109.324 324.795 109.211 325.465 108.983C326.136 108.756 326.71 108.415 327.187 107.961C327.664 107.506 328.028 106.949 328.278 106.29L334.994 106.733C334.653 108.347 333.954 109.756 332.897 110.961C331.852 112.154 330.499 113.086 328.84 113.756C327.193 114.415 325.289 114.745 323.13 114.745ZM351.715 114.745C349.033 114.745 346.727 114.177 344.795 113.04C342.874 111.892 341.397 110.302 340.363 108.267C339.34 106.233 338.829 103.892 338.829 101.245C338.829 98.5629 339.346 96.2106 340.38 94.1879C341.425 92.1538 342.908 90.5686 344.829 89.4322C346.749 88.2845 349.033 87.7106 351.681 87.7106C353.965 87.7106 355.965 88.1254 357.681 88.9549C359.397 89.7845 360.755 90.9493 361.755 92.4493C362.755 93.9493 363.306 95.7106 363.408 97.7334H356.556C356.363 96.4265 355.852 95.3754 355.022 94.5799C354.204 93.7731 353.13 93.3697 351.801 93.3697C350.676 93.3697 349.693 93.6765 348.852 94.2902C348.022 94.8924 347.374 95.7731 346.908 96.9322C346.443 98.0913 346.21 99.4947 346.21 101.142C346.21 102.813 346.437 104.233 346.891 105.404C347.357 106.574 348.011 107.466 348.852 108.08C349.693 108.694 350.676 109 351.801 109C352.63 109 353.374 108.83 354.033 108.489C354.704 108.148 355.255 107.654 355.687 107.006C356.13 106.347 356.42 105.557 356.556 104.637H363.408C363.295 106.637 362.749 108.398 361.772 109.921C360.806 111.432 359.471 112.614 357.766 113.466C356.062 114.319 354.045 114.745 351.715 114.745ZM381.984 88.0515V93.5061H366.217V88.0515H381.984ZM369.796 81.7788H377.058V106.188C377.058 106.858 377.16 107.381 377.364 107.756C377.569 108.12 377.853 108.375 378.217 108.523C378.592 108.671 379.024 108.745 379.512 108.745C379.853 108.745 380.194 108.716 380.535 108.659C380.876 108.591 381.137 108.54 381.319 108.506L382.461 113.91C382.097 114.023 381.586 114.154 380.927 114.302C380.268 114.461 379.467 114.557 378.524 114.591C376.774 114.66 375.239 114.427 373.921 113.892C372.614 113.358 371.597 112.529 370.87 111.404C370.143 110.279 369.785 108.858 369.796 107.142V81.7788ZM386.714 114.233V88.0515H393.754V92.6197H394.026C394.504 90.9947 395.305 89.7674 396.43 88.9379C397.555 88.097 398.85 87.6765 400.316 87.6765C400.68 87.6765 401.072 87.6993 401.492 87.7447C401.913 87.7902 402.282 87.8527 402.6 87.9322V94.3754C402.259 94.2731 401.788 94.1822 401.185 94.1027C400.583 94.0231 400.032 93.9834 399.532 93.9834C398.464 93.9834 397.509 94.2163 396.668 94.6822C395.839 95.1368 395.18 95.7731 394.691 96.5913C394.214 97.4095 393.975 98.3527 393.975 99.4209V114.233H386.714ZM416.965 114.745C414.318 114.745 412.028 114.182 410.096 113.057C408.176 111.921 406.693 110.341 405.647 108.319C404.602 106.284 404.079 103.927 404.079 101.245C404.079 98.5402 404.602 96.1765 405.647 94.1538C406.693 92.1197 408.176 90.5402 410.096 89.4152C412.028 88.2788 414.318 87.7106 416.965 87.7106C419.613 87.7106 421.897 88.2788 423.818 89.4152C425.749 90.5402 427.238 92.1197 428.284 94.1538C429.329 96.1765 429.852 98.5402 429.852 101.245C429.852 103.927 429.329 106.284 428.284 108.319C427.238 110.341 425.749 111.921 423.818 113.057C421.897 114.182 419.613 114.745 416.965 114.745ZM416.999 109.12C418.204 109.12 419.21 108.779 420.016 108.097C420.823 107.404 421.431 106.461 421.84 105.267C422.261 104.074 422.471 102.716 422.471 101.194C422.471 99.6709 422.261 98.3129 421.84 97.1197C421.431 95.9265 420.823 94.9834 420.016 94.2902C419.21 93.597 418.204 93.2504 416.999 93.2504C415.783 93.2504 414.761 93.597 413.931 94.2902C413.113 94.9834 412.494 95.9265 412.073 97.1197C411.664 98.3129 411.46 99.6709 411.46 101.194C411.46 102.716 411.664 104.074 412.073 105.267C412.494 106.461 413.113 107.404 413.931 108.097C414.761 108.779 415.783 109.12 416.999 109.12ZM441.835 99.097V114.233H434.573V88.0515H441.494V92.6709H441.801C442.38 91.1481 443.352 89.9436 444.715 89.0572C446.079 88.1595 447.732 87.7106 449.676 87.7106C451.494 87.7106 453.079 88.1083 454.431 88.9038C455.784 89.6993 456.835 90.8356 457.585 92.3129C458.335 93.7788 458.71 95.5288 458.71 97.5629V114.233L451.448 114.233V98.8584C451.46 97.2561 451.051 96.0061 450.221 95.1084C449.391 94.1993 448.249 93.7447 446.795 93.7447C445.818 93.7447 444.954 93.9549 444.204 94.3754C443.465 94.7959 442.886 95.4095 442.465 96.2163C442.056 97.0118 441.846 97.972 441.835 99.097ZM464.433 114.233V88.0515H471.694V114.233H464.433ZM468.08 84.6765C467.001 84.6765 466.075 84.3186 465.302 83.6027C464.541 82.8754 464.16 82.0061 464.16 80.9947C464.16 79.9947 464.541 79.1368 465.302 78.4208C466.075 77.6936 467.001 77.3299 468.08 77.3299C469.16 77.3299 470.08 77.6936 470.842 78.4208C471.614 79.1368 472.001 79.9947 472.001 80.9947C472.001 82.0061 471.614 82.8754 470.842 83.6027C470.08 84.3186 469.16 84.6765 468.08 84.6765ZM489.34 114.745C486.659 114.745 484.352 114.177 482.42 113.04C480.499 111.892 479.022 110.302 477.988 108.267C476.965 106.233 476.454 103.892 476.454 101.245C476.454 98.5629 476.971 96.2106 478.005 94.1879C479.051 92.1538 480.534 90.5686 482.454 89.4322C484.374 88.2845 486.659 87.7106 489.306 87.7106C491.59 87.7106 493.59 88.1254 495.306 88.9549C497.022 89.7845 498.38 90.9493 499.38 92.4493C500.38 93.9493 500.931 95.7106 501.034 97.7334H494.181C493.988 96.4265 493.477 95.3754 492.647 94.5799C491.829 93.7731 490.755 93.3697 489.426 93.3697C488.301 93.3697 487.318 93.6765 486.477 94.2902C485.647 94.8924 484.999 95.7731 484.534 96.9322C484.068 98.0913 483.835 99.4947 483.835 101.142C483.835 102.813 484.062 104.233 484.516 105.404C484.982 106.574 485.636 107.466 486.477 108.08C487.318 108.694 488.301 109 489.426 109C490.255 109 490.999 108.83 491.659 108.489C492.329 108.148 492.88 107.654 493.312 107.006C493.755 106.347 494.045 105.557 494.181 104.637H501.034C500.92 106.637 500.374 108.398 499.397 109.921C498.431 111.432 497.096 112.614 495.391 113.466C493.687 114.319 491.67 114.745 489.34 114.745ZM527.467 95.5174L520.819 95.9265C520.705 95.3584 520.461 94.847 520.086 94.3924C519.711 93.9265 519.217 93.5572 518.603 93.2845C518.001 93.0004 517.279 92.8584 516.438 92.8584C515.313 92.8584 514.365 93.097 513.592 93.5743C512.819 94.0402 512.433 94.6652 512.433 95.4493C512.433 96.0743 512.683 96.6027 513.183 97.0345C513.683 97.4663 514.541 97.8129 515.757 98.0743L520.495 99.0288C523.041 99.5515 524.938 100.392 526.188 101.552C527.438 102.711 528.063 104.233 528.063 106.12C528.063 107.836 527.558 109.341 526.546 110.637C525.546 111.932 524.171 112.944 522.421 113.671C520.683 114.387 518.677 114.745 516.404 114.745C512.938 114.745 510.177 114.023 508.12 112.58C506.075 111.125 504.876 109.148 504.524 106.648L511.666 106.273C511.882 107.33 512.404 108.137 513.234 108.694C514.063 109.239 515.126 109.512 516.421 109.512C517.694 109.512 518.717 109.267 519.49 108.779C520.274 108.279 520.671 107.637 520.683 106.853C520.671 106.194 520.393 105.654 519.847 105.233C519.302 104.802 518.461 104.472 517.325 104.245L512.791 103.341C510.234 102.83 508.33 101.944 507.08 100.682C505.842 99.4209 505.222 97.8129 505.222 95.8584C505.222 94.1765 505.677 92.7277 506.586 91.5118C507.507 90.2959 508.796 89.3583 510.455 88.6993C512.126 88.0402 514.08 87.7106 516.319 87.7106C519.626 87.7106 522.228 88.4095 524.126 89.8072C526.035 91.2049 527.149 93.1084 527.467 95.5174Z" fill="#054345"/>
</svg>
