<svg width="98" height="64" viewBox="0 0 98 64" fill="none" xmlns="http://www.w3.org/2000/svg">
<path d="M53.8609 0C54.2525 0.213445 54.605 0.455327 54.8452 0.776889C62.679 11.2678 70.5027 21.766 78.3238 32.2659C78.5424 32.5593 78.7173 32.8837 79 33.3324C72.8892 38.865 66.7969 44.381 60.5907 50C58.4567 47.8082 56.3516 45.6461 54.2193 43.4561C51.8371 45.7559 49.6995 47.8196 47.468 49.9739C41.3244 44.4152 35.1937 38.8681 29 33.2641C37.2903 22.1526 45.5298 11.1091 53.8609 0ZM45.9311 19.0235C42.5695 23.5362 39.2079 28.0489 35.8064 32.6152C39.7245 36.157 43.5192 39.5873 47.6269 43.3004C51.5422 39.1591 55.3577 35.1235 59.3038 30.9496C57.775 28.9102 55.9475 26.4724 54.0315 23.9166C52.0584 26.5602 50.2595 28.9703 48.4514 31.3929C49.9188 32.7534 51.2387 33.9772 52.6661 35.3006C51.3872 36.4673 50.2162 37.5357 48.9589 38.6826C46.4845 36.4409 44.0824 34.2647 41.6435 32.0551C45.7814 26.5105 49.8433 21.0678 54.0379 15.4473C58.2378 21.0758 62.3039 26.5247 66.43 32.0542C63.5146 34.704 60.6372 37.3194 57.5901 40.0889C58.6974 41.0676 59.7343 41.984 60.8421 42.9631C64.6054 39.5578 68.4057 36.1189 72.2816 32.6117C66.2011 24.4621 60.1675 16.3755 54.0408 8.16406C51.2819 11.8526 48.6708 15.3438 45.9311 19.0235Z" fill="#10CDD3"/>
<path d="M45.9954 18.9292C48.6708 15.3438 51.282 11.8526 54.0408 8.16406C60.1675 16.3755 66.2011 24.4621 72.2816 32.6117C68.4058 36.1189 64.6054 39.5577 60.8421 42.9631C59.7343 41.984 58.6975 41.0676 57.5902 40.0889C60.6373 37.3194 63.5147 34.704 66.43 32.0542C62.3039 26.5247 58.2379 21.0758 54.0379 15.4473C49.8433 21.0678 45.7814 26.5105 41.6435 32.0551C44.0824 34.2647 46.4845 36.4409 48.959 38.6826C50.2162 37.5357 51.3872 36.4673 52.6662 35.3006C51.2387 33.9772 49.9188 32.7534 48.4514 31.3929C50.2596 28.9703 52.0585 26.5602 54.0316 23.9166C55.9476 26.4724 57.775 28.9102 59.3039 30.9496C55.3577 35.1235 51.5423 39.1591 47.6269 43.3004C43.5192 39.5873 39.7246 36.157 35.8064 32.6152C39.2079 28.0489 42.5696 23.5362 45.9954 18.9292Z" fill="#011123"/>
<path d="M5.874 57.216H1.98V61H0.957V53.718C0.957 53.7107 0.942333 53.652 0.913 53.542C0.891 53.432 0.869 53.3183 0.847 53.201C0.825 53.0837 0.810333 53.014 0.803 52.992H1.98V56.468H5.874V52.992H6.897V61H5.874V57.216ZM9.88754 53.696C9.88754 53.8793 9.82154 54.037 9.68954 54.169C9.56487 54.301 9.40721 54.367 9.21654 54.367C9.03321 54.367 8.87554 54.301 8.74354 54.169C8.61887 54.037 8.55654 53.8793 8.55654 53.696C8.55654 53.5127 8.61887 53.355 8.74354 53.223C8.87554 53.091 9.03321 53.025 9.21654 53.025C9.39987 53.025 9.55754 53.091 9.68954 53.223C9.82154 53.355 9.88754 53.5127 9.88754 53.696ZM9.68954 55.533V61H8.77654V56.182L8.64454 55.533H9.68954ZM13.0333 55.401C13.2459 55.401 13.4476 55.4267 13.6383 55.478C13.8363 55.5293 14.0379 55.555 14.2433 55.555C14.5219 55.555 14.8043 55.5403 15.0903 55.511C15.3763 55.4743 15.6769 55.434 15.9923 55.39L15.7943 56.182H14.9143C14.8629 56.182 14.8079 56.182 14.7493 56.182C14.6979 56.1747 14.6466 56.1673 14.5953 56.16C14.7199 56.3287 14.8116 56.5047 14.8703 56.688C14.9363 56.8713 14.9693 57.0583 14.9693 57.249C14.9693 57.6157 14.8886 57.9457 14.7273 58.239C14.5659 58.5323 14.3276 58.7633 14.0123 58.932C13.7043 59.0933 13.3266 59.174 12.8793 59.174C12.6959 59.174 12.5346 59.2217 12.3953 59.317C12.2559 59.4123 12.1863 59.559 12.1863 59.757C12.1863 59.889 12.2193 59.9843 12.2853 60.043C12.3586 60.0943 12.4466 60.1237 12.5493 60.131C12.6519 60.1383 12.7546 60.142 12.8573 60.142H13.9243C14.1149 60.142 14.3093 60.1567 14.5073 60.186C14.7126 60.208 14.8996 60.2593 15.0683 60.34C15.2369 60.4133 15.3726 60.527 15.4753 60.681C15.5853 60.8277 15.6403 61.0293 15.6403 61.286C15.6403 61.6893 15.5596 62.034 15.3983 62.32C15.2369 62.606 15.0206 62.837 14.7493 63.013C14.4779 63.1963 14.1736 63.3283 13.8363 63.409C13.4989 63.4897 13.1579 63.53 12.8133 63.53C12.6079 63.53 12.3916 63.5043 12.1643 63.453C11.9369 63.409 11.7206 63.332 11.5153 63.222C11.3173 63.1193 11.1559 62.98 11.0313 62.804C10.9066 62.628 10.8443 62.408 10.8443 62.144C10.8443 61.8653 10.9286 61.6197 11.0973 61.407C11.2733 61.1943 11.4749 61.0147 11.7023 60.868V60.835C11.5409 60.7543 11.4126 60.6443 11.3173 60.505C11.2293 60.3583 11.1853 60.2043 11.1853 60.043C11.1853 59.9477 11.2219 59.8597 11.2953 59.779C11.3686 59.691 11.4603 59.5773 11.5703 59.438C11.6876 59.2987 11.8123 59.108 11.9443 58.866C11.6876 58.69 11.4823 58.4663 11.3283 58.195C11.1743 57.9163 11.0973 57.6193 11.0973 57.304C11.0973 56.9447 11.1853 56.622 11.3613 56.336C11.5373 56.05 11.7719 55.8227 12.0653 55.654C12.3659 55.4853 12.6886 55.401 13.0333 55.401ZM13.0443 56.061C12.8683 56.061 12.7033 56.116 12.5493 56.226C12.4026 56.336 12.2816 56.4827 12.1863 56.666C12.0983 56.8493 12.0543 57.0583 12.0543 57.293C12.0543 57.5277 12.0983 57.7403 12.1863 57.931C12.2743 58.1143 12.3916 58.261 12.5383 58.371C12.6923 58.481 12.8573 58.536 13.0333 58.536C13.3339 58.536 13.5723 58.4223 13.7483 58.195C13.9316 57.9677 14.0233 57.6707 14.0233 57.304C14.0233 57.0693 13.9756 56.8603 13.8803 56.677C13.7923 56.4863 13.6749 56.336 13.5283 56.226C13.3816 56.116 13.2203 56.061 13.0443 56.061ZM12.3513 61.011C12.2119 61.1137 12.0836 61.253 11.9663 61.429C11.8489 61.6123 11.7903 61.7883 11.7903 61.957C11.7903 62.133 11.8526 62.2833 11.9773 62.408C12.1093 62.5327 12.2669 62.6243 12.4503 62.683C12.6409 62.749 12.8169 62.782 12.9783 62.782C13.1689 62.782 13.3706 62.76 13.5833 62.716C13.7959 62.6793 13.9939 62.617 14.1773 62.529C14.3606 62.441 14.5073 62.32 14.6173 62.166C14.7346 62.012 14.7933 61.825 14.7933 61.605C14.7933 61.4143 14.7346 61.275 14.6173 61.187C14.4999 61.1063 14.3533 61.055 14.1773 61.033C14.0086 61.0183 13.8399 61.011 13.6713 61.011H12.3513ZM17.6595 52.618V56.182C17.8941 55.962 18.1471 55.775 18.4185 55.621C18.6898 55.467 18.9905 55.39 19.3205 55.39C19.7238 55.39 20.0465 55.4743 20.2885 55.643C20.5305 55.8117 20.7065 56.0427 20.8165 56.336C20.9265 56.622 20.9815 56.9557 20.9815 57.337V61H20.0795V57.634C20.0795 57.4067 20.0611 57.1867 20.0245 56.974C19.9951 56.754 19.9181 56.5707 19.7935 56.424C19.6688 56.2773 19.4598 56.204 19.1665 56.204C18.9831 56.204 18.7998 56.2407 18.6165 56.314C18.4405 56.3873 18.2718 56.479 18.1105 56.589C17.9491 56.699 17.7988 56.8127 17.6595 56.93V61H16.7575V53.267L16.6145 52.618H17.6595ZM26.5733 53.971C26.5219 54.2203 26.4743 54.4807 26.4303 54.752C26.3936 55.016 26.3679 55.2763 26.3533 55.533H27.7833L27.5963 56.226H26.3533V59.724C26.3533 59.8633 26.3679 59.988 26.3973 60.098C26.4339 60.2007 26.4926 60.2813 26.5733 60.34C26.6613 60.3913 26.7823 60.417 26.9363 60.417C27.0536 60.417 27.1709 60.406 27.2883 60.384C27.4056 60.362 27.5193 60.3363 27.6293 60.307L27.7833 60.923C27.5999 60.9743 27.4239 61.0183 27.2553 61.055C27.0939 61.099 26.9069 61.121 26.6943 61.121C26.2249 61.121 25.8986 60.9963 25.7153 60.747C25.5319 60.4977 25.4403 60.1493 25.4403 59.702V56.226H24.6263V55.676C24.8463 55.6687 25.0296 55.61 25.1763 55.5C25.3229 55.39 25.4439 55.2507 25.5393 55.082C25.6346 54.906 25.7116 54.7227 25.7703 54.532C25.8289 54.334 25.8729 54.147 25.9023 53.971H26.5733ZM30.8138 55.401C31.2538 55.401 31.6241 55.4927 31.9248 55.676C32.2254 55.852 32.4491 56.1013 32.5958 56.424C32.7498 56.7393 32.8268 57.1097 32.8268 57.535C32.8268 57.6377 32.8194 57.744 32.8048 57.854C32.7974 57.9567 32.7864 58.0667 32.7718 58.184H29.2957C29.2957 58.8807 29.4498 59.4197 29.7578 59.801C30.0658 60.1823 30.4764 60.373 30.9898 60.373C31.2024 60.373 31.4224 60.34 31.6498 60.274C31.8844 60.208 32.1264 60.109 32.3758 59.977L32.7168 60.527C32.4601 60.7323 32.1704 60.8863 31.8478 60.989C31.5251 61.0917 31.1988 61.143 30.8688 61.143C30.4361 61.143 30.0584 61.066 29.7358 60.912C29.4204 60.7507 29.1564 60.538 28.9438 60.274C28.7384 60.0027 28.5844 59.6983 28.4818 59.361C28.3791 59.0237 28.3278 58.679 28.3278 58.327C28.3278 57.9603 28.3791 57.6047 28.4818 57.26C28.5844 56.9153 28.7384 56.6037 28.9438 56.325C29.1564 56.039 29.4168 55.8153 29.7248 55.654C30.0328 55.4853 30.3958 55.401 30.8138 55.401ZM30.7258 56.094C30.4764 56.094 30.2564 56.1637 30.0658 56.303C29.8751 56.4423 29.7211 56.622 29.6038 56.842C29.4864 57.0547 29.4058 57.2747 29.3618 57.502H31.8698C31.8771 57.194 31.8331 56.9373 31.7378 56.732C31.6498 56.5193 31.5178 56.3617 31.3418 56.259C31.1731 56.149 30.9678 56.094 30.7258 56.094ZM36.2933 55.401C36.572 55.401 36.8506 55.4487 37.1293 55.544C37.4153 55.632 37.694 55.7713 37.9653 55.962L37.4703 56.6C37.265 56.4313 37.0633 56.3103 36.8653 56.237C36.6673 56.1563 36.4766 56.116 36.2933 56.116C36.0733 56.116 35.868 56.1673 35.6773 56.27C35.494 56.3727 35.329 56.5193 35.1823 56.71C35.043 56.8933 34.933 57.117 34.8523 57.381C34.779 57.645 34.7423 57.9383 34.7423 58.261C34.7423 58.9503 34.8963 59.4783 35.2043 59.845C35.5196 60.2117 35.9156 60.395 36.3923 60.395C36.605 60.395 36.8103 60.362 37.0083 60.296C37.2136 60.23 37.4263 60.1347 37.6463 60.01L37.9433 60.593C37.65 60.7763 37.3676 60.912 37.0963 61C36.825 61.0953 36.5206 61.143 36.1833 61.143C35.714 61.143 35.296 61.0257 34.9293 60.791C34.57 60.549 34.284 60.208 34.0713 59.768C33.866 59.328 33.7633 58.811 33.7633 58.217C33.7633 57.645 33.877 57.15 34.1043 56.732C34.339 56.3067 34.647 55.9803 35.0283 55.753C35.417 55.5183 35.8386 55.401 36.2933 55.401ZM40.0354 52.618V56.182C40.2701 55.962 40.5231 55.775 40.7944 55.621C41.0658 55.467 41.3664 55.39 41.6964 55.39C42.0998 55.39 42.4224 55.4743 42.6644 55.643C42.9064 55.8117 43.0824 56.0427 43.1924 56.336C43.3024 56.622 43.3574 56.9557 43.3574 57.337V61H42.4554V57.634C42.4554 57.4067 42.4371 57.1867 42.4004 56.974C42.3711 56.754 42.2941 56.5707 42.1694 56.424C42.0448 56.2773 41.8358 56.204 41.5424 56.204C41.3591 56.204 41.1758 56.2407 40.9924 56.314C40.8164 56.3873 40.6478 56.479 40.4864 56.589C40.3251 56.699 40.1748 56.8127 40.0354 56.93V61H39.1334V53.267L38.9904 52.618H40.0354ZM49.7522 55.401C50.1922 55.401 50.5626 55.4927 50.8632 55.676C51.1639 55.852 51.3876 56.1013 51.5342 56.424C51.6882 56.7393 51.7652 57.1097 51.7652 57.535C51.7652 57.6377 51.7579 57.744 51.7432 57.854C51.7359 57.9567 51.7249 58.0667 51.7102 58.184H48.2342C48.2342 58.8807 48.3882 59.4197 48.6962 59.801C49.0042 60.1823 49.4149 60.373 49.9282 60.373C50.1409 60.373 50.3609 60.34 50.5882 60.274C50.8229 60.208 51.0649 60.109 51.3142 59.977L51.6552 60.527C51.3986 60.7323 51.1089 60.8863 50.7862 60.989C50.4636 61.0917 50.1372 61.143 49.8072 61.143C49.3746 61.143 48.9969 61.066 48.6742 60.912C48.3589 60.7507 48.0949 60.538 47.8822 60.274C47.6769 60.0027 47.5229 59.6983 47.4202 59.361C47.3176 59.0237 47.2662 58.679 47.2662 58.327C47.2662 57.9603 47.3176 57.6047 47.4202 57.26C47.5229 56.9153 47.6769 56.6037 47.8822 56.325C48.0949 56.039 48.3552 55.8153 48.6632 55.654C48.9712 55.4853 49.3342 55.401 49.7522 55.401ZM49.6642 56.094C49.4149 56.094 49.1949 56.1637 49.0042 56.303C48.8136 56.4423 48.6596 56.622 48.5422 56.842C48.4249 57.0547 48.3442 57.2747 48.3002 57.502H50.8082C50.8156 57.194 50.7716 56.9373 50.6762 56.732C50.5882 56.5193 50.4562 56.3617 50.2802 56.259C50.1116 56.149 49.9062 56.094 49.6642 56.094ZM54.0548 52.618V61H53.1418V53.256L52.9988 52.618H54.0548ZM57.9485 55.401C58.3885 55.401 58.7588 55.4927 59.0595 55.676C59.3602 55.852 59.5838 56.1013 59.7305 56.424C59.8845 56.7393 59.9615 57.1097 59.9615 57.535C59.9615 57.6377 59.9542 57.744 59.9395 57.854C59.9322 57.9567 59.9212 58.0667 59.9065 58.184H56.4305C56.4305 58.8807 56.5845 59.4197 56.8925 59.801C57.2005 60.1823 57.6112 60.373 58.1245 60.373C58.3372 60.373 58.5572 60.34 58.7845 60.274C59.0192 60.208 59.2612 60.109 59.5105 59.977L59.8515 60.527C59.5948 60.7323 59.3052 60.8863 58.9825 60.989C58.6598 61.0917 58.3335 61.143 58.0035 61.143C57.5708 61.143 57.1932 61.066 56.8705 60.912C56.5552 60.7507 56.2912 60.538 56.0785 60.274C55.8732 60.0027 55.7192 59.6983 55.6165 59.361C55.5138 59.0237 55.4625 58.679 55.4625 58.327C55.4625 57.9603 55.5138 57.6047 55.6165 57.26C55.7192 56.9153 55.8732 56.6037 56.0785 56.325C56.2912 56.039 56.5515 55.8153 56.8595 55.654C57.1675 55.4853 57.5305 55.401 57.9485 55.401ZM57.8605 56.094C57.6112 56.094 57.3912 56.1637 57.2005 56.303C57.0098 56.4423 56.8558 56.622 56.7385 56.842C56.6212 57.0547 56.5405 57.2747 56.4965 57.502H59.0045C59.0118 57.194 58.9678 56.9373 58.8725 56.732C58.7845 56.5193 58.6525 56.3617 58.4765 56.259C58.3078 56.149 58.1025 56.094 57.8605 56.094ZM63.4281 55.401C63.7067 55.401 63.9854 55.4487 64.2641 55.544C64.5501 55.632 64.8287 55.7713 65.1001 55.962L64.6051 56.6C64.3997 56.4313 64.1981 56.3103 64.0001 56.237C63.8021 56.1563 63.6114 56.116 63.4281 56.116C63.2081 56.116 63.0027 56.1673 62.8121 56.27C62.6287 56.3727 62.4637 56.5193 62.3171 56.71C62.1777 56.8933 62.0677 57.117 61.9871 57.381C61.9137 57.645 61.8771 57.9383 61.8771 58.261C61.8771 58.9503 62.0311 59.4783 62.3391 59.845C62.6544 60.2117 63.0504 60.395 63.5271 60.395C63.7397 60.395 63.9451 60.362 64.1431 60.296C64.3484 60.23 64.5611 60.1347 64.7811 60.01L65.0781 60.593C64.7847 60.7763 64.5024 60.912 64.2311 61C63.9597 61.0953 63.6554 61.143 63.3181 61.143C62.8487 61.143 62.4307 61.0257 62.0641 60.791C61.7047 60.549 61.4187 60.208 61.2061 59.768C61.0007 59.328 60.8981 58.811 60.8981 58.217C60.8981 57.645 61.0117 57.15 61.2391 56.732C61.4737 56.3067 61.7817 55.9803 62.1631 55.753C62.5517 55.5183 62.9734 55.401 63.4281 55.401ZM67.7481 53.971C67.6967 54.2203 67.6491 54.4807 67.6051 54.752C67.5684 55.016 67.5427 55.2763 67.5281 55.533H68.9581L68.7711 56.226H67.5281V59.724C67.5281 59.8633 67.5427 59.988 67.5721 60.098C67.6087 60.2007 67.6674 60.2813 67.7481 60.34C67.8361 60.3913 67.9571 60.417 68.1111 60.417C68.2284 60.417 68.3457 60.406 68.4631 60.384C68.5804 60.362 68.6941 60.3363 68.8041 60.307L68.9581 60.923C68.7747 60.9743 68.5987 61.0183 68.4301 61.055C68.2687 61.099 68.0817 61.121 67.8691 61.121C67.3997 61.121 67.0734 60.9963 66.8901 60.747C66.7067 60.4977 66.6151 60.1493 66.6151 59.702V56.226H65.8011V55.676C66.0211 55.6687 66.2044 55.61 66.3511 55.5C66.4977 55.39 66.6187 55.2507 66.7141 55.082C66.8094 54.906 66.8864 54.7227 66.9451 54.532C67.0037 54.334 67.0477 54.147 67.0771 53.971H67.7481ZM70.7087 55.434C70.8407 55.7567 70.925 56.0977 70.9617 56.457C71.1524 56.1563 71.409 55.9107 71.7317 55.72C72.0544 55.5293 72.3954 55.434 72.7547 55.434L72.5347 56.402C72.1827 56.402 71.882 56.4937 71.6327 56.677C71.3907 56.8603 71.1744 57.0913 70.9837 57.37V61H70.0707V57.04C70.0707 56.8933 70.0597 56.7283 70.0377 56.545C70.0157 56.3617 69.979 56.182 69.9277 56.006C69.8764 55.83 69.8067 55.6797 69.7187 55.555L70.7087 55.434ZM75.9296 61.143C75.3943 61.143 74.9433 61.011 74.5766 60.747C74.2173 60.4757 73.946 60.1237 73.7626 59.691C73.5866 59.2583 73.4986 58.7963 73.4986 58.305C73.4986 57.9383 73.5536 57.5827 73.6636 57.238C73.7736 56.886 73.935 56.5743 74.1476 56.303C74.3603 56.0243 74.6206 55.8043 74.9286 55.643C75.244 55.4817 75.5996 55.401 75.9956 55.401C76.5383 55.401 76.9893 55.533 77.3486 55.797C77.7153 56.061 77.9866 56.4093 78.1626 56.842C78.346 57.2747 78.4376 57.7403 78.4376 58.239C78.4376 58.613 78.3826 58.976 78.2726 59.328C78.1626 59.6727 78.0013 59.9807 77.7886 60.252C77.5833 60.5233 77.323 60.7397 77.0076 60.901C76.6996 61.0623 76.3403 61.143 75.9296 61.143ZM75.9406 60.45C76.2266 60.45 76.465 60.384 76.6556 60.252C76.8536 60.1127 77.0113 59.933 77.1286 59.713C77.2533 59.493 77.3413 59.2583 77.3926 59.009C77.444 58.7523 77.4696 58.5067 77.4696 58.272C77.4696 58.03 77.444 57.7843 77.3926 57.535C77.3486 57.2783 77.2716 57.0437 77.1616 56.831C77.0516 56.611 76.8976 56.435 76.6996 56.303C76.509 56.1637 76.2706 56.094 75.9846 56.094C75.6986 56.094 75.4566 56.1637 75.2586 56.303C75.068 56.435 74.914 56.611 74.7966 56.831C74.6793 57.051 74.595 57.2893 74.5436 57.546C74.4923 57.7953 74.4666 58.0373 74.4666 58.272C74.4666 58.4993 74.4923 58.7413 74.5436 58.998C74.595 59.2473 74.6756 59.482 74.7856 59.702C74.903 59.922 75.057 60.1017 75.2476 60.241C75.4383 60.3803 75.6693 60.45 75.9406 60.45ZM80.3657 55.445C80.417 55.5697 80.461 55.698 80.4977 55.83C80.5343 55.962 80.56 56.094 80.5747 56.226C80.7947 56.006 81.055 55.8153 81.3557 55.654C81.6563 55.4853 81.9643 55.401 82.2797 55.401C82.683 55.401 83.0057 55.4853 83.2477 55.654C83.497 55.8227 83.6767 56.0537 83.7867 56.347C83.8967 56.633 83.9517 56.9667 83.9517 57.348V61H83.0497V57.645C83.0497 57.4177 83.0313 57.194 82.9947 56.974C82.9653 56.754 82.8847 56.5743 82.7527 56.435C82.628 56.2883 82.419 56.215 82.1257 56.215C81.9497 56.215 81.77 56.2517 81.5867 56.325C81.4033 56.391 81.231 56.479 81.0697 56.589C80.9083 56.699 80.7617 56.8163 80.6297 56.941V61H79.7277V57.128C79.7277 56.9813 79.7167 56.8127 79.6947 56.622C79.6727 56.424 79.636 56.2333 79.5847 56.05C79.5333 55.8593 79.46 55.7017 79.3647 55.577L80.3657 55.445ZM86.8983 53.696C86.8983 53.8793 86.8323 54.037 86.7003 54.169C86.5756 54.301 86.4179 54.367 86.2273 54.367C86.0439 54.367 85.8863 54.301 85.7543 54.169C85.6296 54.037 85.5673 53.8793 85.5673 53.696C85.5673 53.5127 85.6296 53.355 85.7543 53.223C85.8863 53.091 86.0439 53.025 86.2273 53.025C86.4106 53.025 86.5683 53.091 86.7003 53.223C86.8323 53.355 86.8983 53.5127 86.8983 53.696ZM86.7003 55.533V61H85.7873V56.182L85.6553 55.533H86.7003ZM90.638 55.401C90.9167 55.401 91.1954 55.4487 91.474 55.544C91.76 55.632 92.0387 55.7713 92.31 55.962L91.815 56.6C91.6097 56.4313 91.408 56.3103 91.21 56.237C91.012 56.1563 90.8214 56.116 90.638 56.116C90.418 56.116 90.2127 56.1673 90.022 56.27C89.8387 56.3727 89.6737 56.5193 89.527 56.71C89.3877 56.8933 89.2777 57.117 89.197 57.381C89.1237 57.645 89.087 57.9383 89.087 58.261C89.087 58.9503 89.241 59.4783 89.549 59.845C89.8644 60.2117 90.2604 60.395 90.737 60.395C90.9497 60.395 91.155 60.362 91.353 60.296C91.5584 60.23 91.771 60.1347 91.991 60.01L92.288 60.593C91.9947 60.7763 91.7124 60.912 91.441 61C91.1697 61.0953 90.8654 61.143 90.528 61.143C90.0587 61.143 89.6407 61.0257 89.274 60.791C88.9147 60.549 88.6287 60.208 88.416 59.768C88.2107 59.328 88.108 58.811 88.108 58.217C88.108 57.645 88.2217 57.15 88.449 56.732C88.6837 56.3067 88.9917 55.9803 89.373 55.753C89.7617 55.5183 90.1834 55.401 90.638 55.401ZM95.2602 55.401C95.5095 55.401 95.7552 55.434 95.9972 55.5C96.2465 55.5587 96.4738 55.654 96.6792 55.786L96.3602 56.49C96.1988 56.358 96.0192 56.259 95.8212 56.193C95.6232 56.127 95.4288 56.094 95.2382 56.094C94.9668 56.094 94.7285 56.1563 94.5232 56.281C94.3252 56.4057 94.2262 56.5927 94.2262 56.842C94.2262 57.018 94.2665 57.1647 94.3472 57.282C94.4352 57.3993 94.5488 57.4983 94.6882 57.579C94.8275 57.6597 94.9778 57.7403 95.1392 57.821C95.3225 57.909 95.5058 58.0007 95.6892 58.096C95.8798 58.184 96.0522 58.294 96.2062 58.426C96.3675 58.5507 96.4958 58.7047 96.5912 58.888C96.6938 59.064 96.7452 59.284 96.7452 59.548C96.7452 59.9147 96.6535 60.219 96.4702 60.461C96.2942 60.6957 96.0595 60.868 95.7662 60.978C95.4802 61.088 95.1685 61.143 94.8312 61.143C94.5378 61.143 94.2445 61.1027 93.9512 61.022C93.6578 60.9413 93.3865 60.8277 93.1372 60.681L93.5222 60.01C93.6982 60.142 93.8962 60.2483 94.1162 60.329C94.3362 60.4097 94.5488 60.45 94.7542 60.45C95.0328 60.45 95.2748 60.384 95.4802 60.252C95.6928 60.12 95.7992 59.922 95.7992 59.658C95.7992 59.4747 95.7405 59.3243 95.6232 59.207C95.5132 59.0823 95.3702 58.9723 95.1942 58.877C95.0182 58.7817 94.8348 58.69 94.6442 58.602C94.4242 58.492 94.2078 58.3747 93.9952 58.25C93.7898 58.118 93.6212 57.953 93.4892 57.755C93.3572 57.557 93.2912 57.304 93.2912 56.996C93.2912 56.644 93.3828 56.3507 93.5662 56.116C93.7568 55.8813 94.0025 55.7053 94.3032 55.588C94.6038 55.4633 94.9228 55.401 95.2602 55.401Z" fill="black"/>
</svg>
