<svg width="65" height="65" viewBox="0 0 65 65" fill="none" xmlns="http://www.w3.org/2000/svg">
<path d="M32.3191 0C32.8282 0.277479 33.2866 0.591924 33.5987 1.00996C43.7827 14.6481 53.9535 28.2957 64.121 41.9456C64.4051 42.3271 64.6325 42.7488 65 43.3321C57.056 50.5245 49.1359 57.6952 41.0678 65C38.2937 62.1507 35.5571 59.34 32.7851 56.4929C29.6883 59.4826 26.9094 62.1654 24.0084 64.966C16.0217 57.7397 8.05182 50.5286 0 43.2433C10.7774 28.7983 21.4888 14.4418 32.3191 0ZM22.0105 24.7306C17.6404 30.5971 13.2703 36.4636 8.84827 42.3997C13.9419 47.0042 18.875 51.4635 24.2149 56.2906C29.3049 50.9068 34.2649 45.6606 39.395 40.2345C37.4075 37.5832 35.0318 34.4142 32.541 31.0915C29.9759 34.5282 27.6374 37.6614 25.2868 40.8108C27.1944 42.5794 28.9103 44.1703 30.766 45.8908C29.1034 47.4076 27.581 48.7964 25.9466 50.2874C22.7299 47.3732 19.6071 44.5441 16.4365 41.6716C21.8158 34.4637 27.0963 27.3881 32.5492 20.0815C38.0092 27.3985 43.295 34.4821 48.659 41.6704C44.869 45.1152 41.1284 48.5152 37.1672 52.1156C38.6066 53.3879 39.9546 54.5792 41.3947 55.852C46.287 51.4251 51.2274 46.9545 56.2661 42.3952C48.3614 31.8007 40.5177 21.2882 32.553 10.6133C28.9665 15.4084 25.572 19.9469 22.0105 24.7306Z" fill="#10CDD3"/>
<path d="M22.0941 24.608C25.5721 19.9469 28.9666 15.4084 32.5531 10.6133C40.5179 21.2882 48.3615 31.8007 56.2662 42.3952C51.2276 46.9546 46.2871 51.4251 41.3948 55.852C39.9547 54.5792 38.6068 53.3879 37.1673 52.1156C41.1285 48.5152 44.8692 45.1152 48.6591 41.6704C43.2951 34.4821 38.0093 27.3985 32.5493 20.0815C27.0964 27.3881 21.8159 34.4637 16.4366 41.6716C19.6072 44.5441 22.73 47.3732 25.9467 50.2874C27.5811 48.7964 29.1035 47.4076 30.7661 45.8908C28.9104 44.1703 27.1945 42.5794 25.2869 40.8108C27.6375 37.6614 29.9761 34.5282 32.5411 31.0915C35.0319 34.4142 37.4076 37.5833 39.3951 40.2345C34.2651 45.6606 29.305 50.9068 24.215 56.2906C18.8751 51.4635 13.942 47.0042 8.84839 42.3997C13.2704 36.4636 17.6405 30.5971 22.0941 24.608Z" fill="#011123"/>
</svg>
